HIERARCHY
ROOT Hips
{
  OFFSET 5.80788e-005 67.184 3.4734
  CHANNELS 6 Xposition Yposition Zposition Zrotation Xrotation Yrotation
  JOINT Chest
  {
    OFFSET 0 8.7983 -4.7612
    CHANNELS 3 Zrotation Xrotation Yrotation
    JOINT Chest2
    {
      OFFSET 0 8.0291 0.4195
      CHANNELS 3 Zrotation Xrotation Yrotation
      JOINT Chest3
      {
        OFFSET 0 9.9351 -2.2114
        CHANNELS 3 Zrotation Xrotation Yrotation
        JOINT Neck
        {
          OFFSET 0 22.3885 -0.4656
          CHANNELS 3 Zrotation Xrotation Yrotation
          JOINT Head
          {
            OFFSET -0.0001 12.643 3.4389
            CHANNELS 3 Zrotation Xrotation Yrotation
            End Site
            {
              OFFSET 0.0001 17.6655 0.5274
            }
          }
        }
        JOINT LeftCollar
        {
          OFFSET 2.2603 21.606 7.4023
          CHANNELS 3 Zrotation Xrotation Yrotation
          JOINT LeftShoulder
          {
            OFFSET 13.5163 -1.1332 -5.0146
            CHANNELS 3 Zrotation Xrotation Yrotation
            JOINT LeftElbow
            {
              OFFSET -0.0995 -28.05 -0.2431
              CHANNELS 3 Zrotation Xrotation Yrotation
              JOINT LeftWrist
              {
                OFFSET 0.0679 -23.3996 -0.1402
                CHANNELS 3 Zrotation Xrotation Yrotation
                JOINT LeftFinger1
                {
                  OFFSET 0.7932 -9.069 2.5189
                  CHANNELS 3 Zrotation Xrotation Yrotation
                  JOINT LeftFinger11
                  {
                    OFFSET -0.8272 -3.3923 0.5977
                    CHANNELS 3 Zrotation Xrotation Yrotation
                    JOINT LeftFinger12
                    {
                      OFFSET -0.5649 -2.3158 0.4082
                      CHANNELS 3 Zrotation Xrotation Yrotation
                      End Site
                      {
                        OFFSET -0.4919 -1.6479 0.2673
                      }
                    }
                  }
                }
                JOINT LeftFinger2
                {
                  OFFSET 0.9159 -9.2044 0.2193
                  CHANNELS 3 Zrotation Xrotation Yrotation
                  JOINT LeftFinger21
                  {
                    OFFSET 0.0117 -4.1944 -0.0248
                    CHANNELS 3 Zrotation Xrotation Yrotation
                    JOINT LeftFinger22
                    {
                      OFFSET 0.0071 -2.3249 -0.0142
                      CHANNELS 3 Zrotation Xrotation Yrotation
                      End Site
                      {
                        OFFSET -0.1475 -2.0882 0.0028
                      }
                    }
                  }
                }
                JOINT LeftFinger3
                {
                  OFFSET 0.6113 -8.7231 -2.0637
                  CHANNELS 3 Zrotation Xrotation Yrotation
                  JOINT LeftFinger31
                  {
                    OFFSET -0.1927 -3.8059 -0.2383
                    CHANNELS 3 Zrotation Xrotation Yrotation
                    JOINT LeftFinger32
                    {
                      OFFSET -0.1091 -2.1688 -0.1362
                      CHANNELS 3 Zrotation Xrotation Yrotation
                      End Site
                      {
                        OFFSET -0.2358 -1.9176 -0.0906
                      }
                    }
                  }
                }
                JOINT LeftFinger4
                {
                  OFFSET -0.6151 -8.0947 -3.5641
                  CHANNELS 3 Zrotation Xrotation Yrotation
                  JOINT LeftFinger41
                  {
                    OFFSET -0.4882 -2.341 -0.6462
                    CHANNELS 3 Zrotation Xrotation Yrotation
                    JOINT LeftFinger42
                    {
                      OFFSET -0.3575 -1.7167 -0.4742
                      CHANNELS 3 Zrotation Xrotation Yrotation
                      End Site
                      {
                        OFFSET -0.4187 -1.5237 -0.3496
                      }
                    }
                  }
                }
                JOINT LeftFinger0
                {
                  OFFSET -1.42 -1.8761 1.4223
                  CHANNELS 3 Zrotation Xrotation Yrotation
                  JOINT LeftFinger01
                  {
                    OFFSET -1.1471 -3.4929 2.6334
                    CHANNELS 3 Zrotation Xrotation Yrotation
                    JOINT LeftFinger02
                    {
                      OFFSET -0.823 -2.3 1.6571
                      CHANNELS 3 Zrotation Xrotation Yrotation
                      End Site
                      {
                        OFFSET -0.5822 -1.6914 1.1582
                      }
                    }
                  }
                }
              }
            }
          }
        }
        JOINT RightCollar
        {
          OFFSET -2.2603 21.606 7.4023
          CHANNELS 3 Zrotation Xrotation Yrotation
          JOINT RightShoulder
          {
            OFFSET -13.5187 -1.1334 -5.0155
            CHANNELS 3 Zrotation Xrotation Yrotation
            JOINT RightElbow
            {
              OFFSET 0.0994 -28.0499 -0.2431
              CHANNELS 3 Zrotation Xrotation Yrotation
              JOINT RightWrist
              {
                OFFSET -0.0679 -23.3996 -0.1402
                CHANNELS 3 Zrotation Xrotation Yrotation
                JOINT RightFinger1
                {
                  OFFSET -0.7932 -9.0691 2.5189
                  CHANNELS 3 Zrotation Xrotation Yrotation
                  JOINT RightFinger11
                  {
                    OFFSET 0.8272 -3.3923 0.5977
                    CHANNELS 3 Zrotation Xrotation Yrotation
                    JOINT RightFinger12
                    {
                      OFFSET 0.565 -2.3158 0.4082
                      CHANNELS 3 Zrotation Xrotation Yrotation
                      End Site
                      {
                        OFFSET 0.4919 -1.6479 0.2673
                      }
                    }
                  }
                }
                JOINT RightFinger2
                {
                  OFFSET -0.916 -9.2044 0.2193
                  CHANNELS 3 Zrotation Xrotation Yrotation
                  JOINT RightFinger21
                  {
                    OFFSET -0.0117 -4.1944 -0.0248
                    CHANNELS 3 Zrotation Xrotation Yrotation
                    JOINT RightFinger22
                    {
                      OFFSET -0.0071 -2.3249 -0.0142
                      CHANNELS 3 Zrotation Xrotation Yrotation
                      End Site
                      {
                        OFFSET 0.1475 -2.0882 0.0028
                      }
                    }
                  }
                }
                JOINT RightFinger3
                {
                  OFFSET -0.6113 -8.7231 -2.0637
                  CHANNELS 3 Zrotation Xrotation Yrotation
                  JOINT RightFinger31
                  {
                    OFFSET 0.1927 -3.8059 -0.2383
                    CHANNELS 3 Zrotation Xrotation Yrotation
                    JOINT RightFinger32
                    {
                      OFFSET 0.1091 -2.1688 -0.1362
                      CHANNELS 3 Zrotation Xrotation Yrotation
                      End Site
                      {
                        OFFSET 0.2358 -1.9176 -0.0906
                      }
                    }
                  }
                }
                JOINT RightFinger4
                {
                  OFFSET 0.6151 -8.0947 -3.564
                  CHANNELS 3 Zrotation Xrotation Yrotation
                  JOINT RightFinger41
                  {
                    OFFSET 0.4882 -2.341 -0.6462
                    CHANNELS 3 Zrotation Xrotation Yrotation
                    JOINT RightFinger42
                    {
                      OFFSET 0.3574 -1.7166 -0.4742
                      CHANNELS 3 Zrotation Xrotation Yrotation
                      End Site
                      {
                        OFFSET 0.4187 -1.5237 -0.3496
                      }
                    }
                  }
                }
                JOINT RightFinger0
                {
                  OFFSET 1.4199 -1.8761 1.4221
                  CHANNELS 3 Zrotation Xrotation Yrotation
                  JOINT RightFinger01
                  {
                    OFFSET 1.1472 -3.4929 2.6336
                    CHANNELS 3 Zrotation Xrotation Yrotation
                    JOINT RightFinger02
                    {
                      OFFSET 0.8229 -2.3 1.6571
                      CHANNELS 3 Zrotation Xrotation Yrotation
                      End Site
                      {
                        OFFSET 0.5822 -1.6914 1.1582
                      }
                    }
                  }
                }
              }
            }
          }
        }
      }
    }
  }
  JOINT RightHip
  {
    OFFSET -9.412 3.9771 -0.7758
    CHANNELS 3 Zrotation Xrotation Yrotation
    JOINT RightKnee
    {
      OFFSET -0.7531 -40.938 0
      CHANNELS 3 Zrotation Xrotation Yrotation
      JOINT RightAnkle
      {
        OFFSET 0 -40.1986 0
        CHANNELS 3 Zrotation Xrotation Yrotation
        JOINT RightToe
        {
          OFFSET 0 -4.4182 9.239
          CHANNELS 3 Zrotation Xrotation Yrotation
          End Site
          {
            OFFSET 0 0 6.1981
          }
        }
      }
    }
  }
  JOINT LeftHip
  {
    OFFSET 9.4119 3.9773 -0.7758
    CHANNELS 3 Zrotation Xrotation Yrotation
    JOINT LeftKnee
    {
      OFFSET 0.7532 -40.9383 0
      CHANNELS 3 Zrotation Xrotation Yrotation
      JOINT LeftAnkle
      {
        OFFSET 0 -40.1986 0
        CHANNELS 3 Zrotation Xrotation Yrotation
        JOINT LeftToe
        {
          OFFSET 0 -4.4182 9.239
          CHANNELS 3 Zrotation Xrotation Yrotation
          End Site
          {
            OFFSET 0 0 6.1981
          }
        }
      }
    }
  }
}
MOTION
Frames:	5
Frame Time:	0.0333333
39.8321 2.11649 10.0164 -0 -79.6006 -0 -0.0196487 3.70131 -0.105949 -0.032524 7.40264 -0.211286 -0.0325241 7.40265 -0.211287 -9.97033 -14.775 -21.8504 4.95966e-006 -35.9013 6.1771e-006 -0.54367 19.1877 -36.6868 38.8311 4.62744 10.5943 -9.86779 -15.7916 -13.0174 -15.3051 -5.84341 -37.1595 1.45599e-006 -6.02326e-006 5.19974e-006 9.54166e-015 0 9.93923e-016 3.18055e-015 -7.95139e-016 9.93923e-016 1.45599e-006 -6.02326e-006 5.19974e-006 -0.0128168 0.00232315 7.80427e-005 3.18055e-015 1.59028e-015 1.19271e-015 1.45599e-006 -6.02326e-006 5.19974e-006 -0.0160452 0.00299965 0.000846871 3.18055e-015 7.95139e-016 -1.59028e-015 1.45599e-006 -6.02326e-006 5.19974e-006 -0.012596 0.00311206 0.00283222 -6.36111e-015 7.95139e-016 9.93923e-016 1.45599e-006 -6.02326e-006 5.19974e-006 9.54166e-015 0 9.93923e-016 3.18055e-015 -7.95139e-016 9.93923e-016 0.384875 19.1249 31.481 -39.3128 2.35234 -6.37268 9.23194 -15.808 12.7831 14.9712 -6.91734 37.4028 -5.79256e-006 -1.23722e-006 -6.81637e-006 5.79256e-006 1.23722e-006 6.81637e-006 -5.79256e-006 -1.23722e-006 -6.81637e-006 -5.79256e-006 -1.23722e-006 -6.81637e-006 0.0129409 0.00231991 -8.93522e-005 0 0 -3.97569e-015 -5.79256e-006 -1.23722e-006 -6.81637e-006 0.0163436 0.00303182 -0.000867523 1.36381e-006 2.72573e-006 5.22357e-006 -5.79256e-006 -1.23722e-006 -6.81637e-006 0.0145699 0.00367346 -0.00325553 5.0201e-006 7.82925e-006 -7.94097e-006 -5.79256e-006 -1.23722e-006 -6.81637e-006 5.79256e-006 1.23722e-006 6.81637e-006 -5.79256e-006 -1.23722e-006 -6.81637e-006 178.62 -17.6117 169.224 -167.855 37.4831 136.756 0.531937 46.3487 -9.47471 2.38212e-006 -8.67505e-006 -5.73318e-006 -176.969 -17.2947 -168.322 167.877 37.5306 -136.783 -0.571417 46.2809 9.50312 -4.81061e-006 1.4039e-006 -5.45826e-006 
39.8325 2.0487 9.97007 -4.56153e-008 -79.1999 -1.08064e-008 -0.0192559 3.60106 -0.106125 -0.031908 7.20214 -0.211663 -0.0319081 7.20215 -0.211663 -10.0462 -14.7742 -22.0137 -2.17888e-006 -36.1216 -3.19054e-006 -1.15861 19.5406 -36.6171 39.219 4.66753 10.5946 -9.48494 -15.3798 -12.8897 -15.3263 -6.18091 -37.2843 1.55518e-006 1.60129e-006 1.24876e-007 -0 0 1.59028e-015 -2.75869e-033 -7.95139e-016 -1.98785e-016 1.55518e-006 1.60129e-006 1.24876e-007 -0.0128164 0.00233556 9.36464e-005 -7.44847e-032 -2.38542e-015 -1.78906e-015 1.55518e-006 1.60129e-006 1.24876e-007 -0.0160514 0.0030104 0.000871509 -3.18055e-015 7.95139e-016 -1.78906e-015 1.55518e-006 1.60129e-006 1.24876e-007 -0.0125703 0.00311742 0.00282845 4.41391e-032 -7.95139e-016 3.18055e-015 1.55518e-006 1.60129e-006 1.24876e-007 -0 0 1.59028e-015 -2.75869e-033 -7.95139e-016 -1.98785e-016 1.01697 19.4885 31.4097 -39.7271 2.37331 -6.39831 8.85342 -15.4015 12.6598 14.9983 -7.25608 37.5191 3.18055e-015 -1.59028e-015 -3.97569e-016 3.18055e-015 -1.59028e-015 -3.97569e-016 3.18055e-015 -1.59028e-015 -1.19271e-015 3.18055e-015 -1.59028e-015 -3.97569e-016 0.0129614 0.00230786 -8.853e-005 -3.18055e-015 1.59028e-015 -7.95139e-016 3.18055e-015 -1.59028e-015 -3.97569e-016 0.0163219 0.00303136 -0.000880073 -1.10348e-032 -1.59028e-015 -3.97569e-016 3.18055e-015 -1.59028e-015 -3.97569e-016 0.0145596 0.00366508 -0.00326094 -2.80034e-006 -3.15226e-006 2.52967e-006 3.18055e-015 -1.59028e-015 -3.97569e-016 3.18055e-015 -1.59028e-015 -3.97569e-016 3.18055e-015 -1.59028e-015 -1.19271e-015 178.558 -17.2207 169.194 -167.848 37.5026 136.75 0.532734 46.347 -9.47578 4.69307e-006 -9.85283e-006 -4.53254e-007 -176.999 -16.9012 -168.347 167.877 37.5301 -136.783 -0.571296 46.2813 9.50327 3.81615e-006 1.6818e-007 -8.78883e-007 
39.8329 1.9808 9.92334 -2.96003e-009 -78.7993 1.53504e-015 -0.0188612 3.50083 -0.106304 -0.0312887 7.00169 -0.212046 -0.0312887 7.00171 -0.212046 -10.1221 -14.7732 -22.1771 -6.45777e-006 -36.3416 -8.00506e-006 -1.77527 19.8927 -36.5432 39.6069 4.70771 10.5946 -9.10378 -14.9674 -12.7651 -15.3482 -6.51832 -37.4094 -0 0 4.57205e-015 5.51738e-032 -7.95139e-016 3.97569e-015 -6.36111e-015 7.95139e-016 1.98785e-016 -0 0 4.57205e-015 -0.0128253 0.00232021 7.25807e-005 3.18055e-015 1.59028e-015 -1.98785e-016 -0 0 4.57205e-015 -0.0160557 0.00299878 0.000850721 6.36111e-015 -1.59028e-015 -2.5842e-015 -0 0 4.57205e-015 -0.0126068 0.00312141 0.00283035 -3.18055e-015 -7.95139e-016 -2.78299e-015 -0 0 4.57205e-015 5.51738e-032 -7.95139e-016 3.97569e-015 -6.36111e-015 7.95139e-016 1.98785e-016 1.65088 19.8512 31.334 -40.1411 2.39466 -6.42382 8.4764 -14.9946 12.5395 15.026 -7.5948 37.6356 0 2.38542e-015 -0 3.18055e-015 7.95139e-016 4.77083e-015 -3.31043e-032 7.95139e-016 2.38542e-015 0 2.38542e-015 -0 0.012949 0.00230823 -7.81978e-005 -5.51738e-033 -7.95139e-016 -3.97569e-016 0 2.38542e-015 -0 0.0163326 0.00302256 -0.000866687 -1.24141e-030 -7.15625e-015 -9.93923e-015 0 2.38542e-015 -0 0.0145616 0.00367827 -0.00325832 -1.15865e-031 2.38542e-015 2.78299e-015 0 2.38542e-015 -0 3.18055e-015 7.95139e-016 4.77083e-015 -3.31043e-032 7.95139e-016 2.38542e-015 178.496 -16.8274 169.164 -167.841 37.52 136.743 0.533428 46.3454 -9.47673 -6.62349e-008 -6.75787e-007 2.05227e-006 -177.03 -16.5098 -168.372 167.877 37.5314 -136.782 -0.571198 46.2817 9.50344 4.37326e-015 3.18055e-015 3.18055e-015 
39.8334 1.9128 9.87623 1.06938e-008 -78.3987 1.44685e-008 -0.0184675 3.4006 -0.106484 -0.030672 6.80117 -0.212431 -0.0306721 6.80117 -0.212431 -10.1979 -14.7719 -22.3403 1.90275e-006 -36.5615 2.34925e-007 -2.39367 20.2441 -36.4651 39.9952 4.74722 10.5942 -8.72469 -14.5535 -12.6435 -15.3708 -6.85567 -37.5346 -3.18055e-015 -4.77083e-015 1.13307e-014 -3.18055e-015 -5.56597e-015 9.34288e-015 3.18055e-015 -3.97569e-015 1.17283e-014 -3.18055e-015 -4.77083e-015 1.13307e-014 -0.0128045 0.00231837 8.35683e-005 -3.18055e-015 0 -5.1684e-015 -3.18055e-015 -4.77083e-015 1.13307e-014 -0.0160453 0.00299886 0.00084994 -6.36111e-015 -6.36111e-015 1.03368e-014 -3.18055e-015 -4.77083e-015 1.13307e-014 -0.0125895 0.00312736 0.0028166 3.18055e-015 0 1.39149e-015 -3.18055e-015 -4.77083e-015 1.13307e-014 -3.18055e-015 -5.56597e-015 9.34288e-015 3.18055e-015 -3.97569e-015 1.17283e-014 2.28661 20.2132 31.2539 -40.5548 2.41658 -6.44917 8.10083 -14.5873 12.4223 15.0544 -7.93341 37.7525 -2.20695e-032 -7.95139e-016 -1.59028e-015 -3.31043e-032 -1.59028e-015 -1.19271e-015 -3.31043e-032 -1.59028e-015 -1.19271e-015 -2.20695e-032 -7.95139e-016 -1.59028e-015 0.0129541 0.00231094 -7.8473e-005 6.36111e-015 0 7.95139e-016 -2.20695e-032 -7.95139e-016 -1.59028e-015 0.0163303 0.00302888 -0.000866529 7.72434e-032 -1.59028e-015 2.78299e-015 -2.20695e-032 -7.95139e-016 -1.59028e-015 0.0145593 0.00367865 -0.00324827 6.36111e-015 7.95139e-016 7.95139e-016 -2.20695e-032 -7.95139e-016 -1.59028e-015 -3.31043e-032 -1.59028e-015 -1.19271e-015 -3.31043e-032 -1.59028e-015 -1.19271e-015 178.436 -16.3683 169.137 -167.858 37.4744 136.756 0.534144 46.3437 -9.47775 4.92184e-006 8.42355e-007 3.36882e-006 -177.06 -16.1139 -168.397 167.878 37.5286 -136.782 -0.57102 46.2822 9.50353 2.68313e-007 -3.99342e-007 -3.22973e-006 
39.8338 1.84472 9.82873 5.7186e-008 -77.9981 7.45506e-008 -0.0180746 3.30037 -0.106659 -0.0300582 6.60078 -0.212804 -0.0300581 6.60077 -0.212804 -10.2737 -14.7705 -22.5036 3.18023e-006 -36.7812 3.60682e-006 -3.01381 20.5945 -36.3828 40.3829 4.78751 10.5937 -8.34678 -14.1398 -12.5251 -15.3943 -7.19298 -37.6602 6.36111e-015 7.95139e-016 -9.93923e-016 -3.18055e-015 2.38542e-015 -1.59028e-015 1.65521e-032 2.38542e-015 -3.97569e-016 6.36111e-015 7.95139e-016 -9.93923e-016 -0.0128024 0.00232366 8.91695e-005 -6.36111e-015 0 -7.95139e-016 6.36111e-015 7.95139e-016 -9.93923e-016 -0.0160211 0.0029896 0.000849249 3.18055e-015 -1.59028e-015 1.78906e-015 6.36111e-015 7.95139e-016 -9.93923e-016 -0.0125899 0.0031243 0.00282465 3.18055e-015 0 -1.19271e-015 6.36111e-015 7.95139e-016 -9.93923e-016 -3.18055e-015 2.38542e-015 -1.59028e-015 1.65521e-032 2.38542e-015 -3.97569e-016 2.92419 20.574 31.1693 -40.9693 2.43766 -6.47435 7.72751 -14.1783 12.3079 15.0836 -8.27198 37.8696 -1.56531e-006 3.27244e-006 -1.62741e-007 -3.18055e-015 1.35174e-014 -1.59028e-015 3.18055e-015 1.27222e-014 -2.78299e-015 -1.56531e-006 3.27244e-006 -1.62741e-007 0.0129576 0.00232014 -9.69872e-005 -3.18055e-015 -7.95139e-016 -3.97569e-016 -1.56531e-006 3.27244e-006 -1.62741e-007 0.0163316 0.00303541 -0.000881822 -3.18055e-015 7.95139e-016 -1.59028e-015 -1.56531e-006 3.27244e-006 -1.62741e-007 0.014599 0.0036906 -0.00327168 -6.36111e-015 -7.95139e-016 -0 -1.56531e-006 3.27244e-006 -1.62741e-007 -3.18055e-015 1.35174e-014 -1.59028e-015 3.18055e-015 1.27222e-014 -2.78299e-015 178.375 -15.9677 169.108 -167.854 37.4849 136.752 0.534893 46.3421 -9.47877 3.27479e-006 -1.34986e-006 4.58711e-006 -177.09 -15.721 -168.421 167.878 37.5285 -136.782 -0.570913 46.2826 9.50372 -7.09359e-007 3.18055e-015 -4.70889e-007 
